<svg width="252" height="159" viewBox="0 0 252 159" fill="none" xmlns="http://www.w3.org/2000/svg">
<path d="M1.6287 10.7926V83.0752C1.6287 91.0205 2.77327 100.472 9.10979 106.038C12.4431 108.966 16.3819 109.703 20.7124 110.125C25.3018 110.572 31.0694 111.338 35.5707 109.848C48.1238 105.692 57.6097 89.4438 62.9321 78.5034C69.995 63.9852 72.4007 45.5186 72.6644 29.5646C72.7883 22.0679 74.7411 9.49167 70.2054 2.68807M83.9207 7.05203V92.7382C83.9207 95.1144 83.5132 98.0448 84.5441 100.289C85.3174 101.972 86.5216 103.985 87.7998 101.813C88.6709 100.332 90.1866 99.8474 90.7784 98.072M75.1928 50.6917C81.2026 47.96 86.7034 42.9604 92.0252 39.1238C100.557 32.973 109.166 26.9365 117.759 20.8713C120.236 19.1229 122.665 17.2088 125.344 15.78C126.176 15.3363 127.177 14.1651 125.69 15.1566M84.5441 45.7043C85.4151 49.4058 87.6644 52.95 89.6008 56.164C93.2789 62.2689 96.6214 68.8202 100.753 74.6243C103.528 78.5217 107.759 82.4693 110.105 86.5733C111.919 89.748 116.191 92.3843 118.832 94.9549C119.542 95.6449 123.162 99.2508 122.573 98.072M141.899 70.0179C138.834 70.0179 134.874 69.3439 131.959 70.3642C125.86 72.4989 123.196 83.4219 123.196 88.9631C123.196 91.2095 122.412 94.7531 123.82 96.5134C125.088 98.0983 129.128 93.1998 129.708 92.4265C132.475 88.7367 133.522 84.7579 135.319 80.6507C136.444 78.0791 136.288 77.0746 136.288 80.9278C136.288 88.3351 140.594 99.5515 147.233 89.3094C148.112 87.9531 153.237 79.9681 155.634 73.9129M155.634 73.9129C157.181 70.005 157.591 66.9008 154.991 66.9008C152.431 66.9008 149.568 69.5731 152.532 71.6111C153.547 72.3088 154.602 73.0835 155.634 73.9129ZM155.634 73.9129C157.349 75.2913 158.999 76.8208 160.29 78.3995C161.564 79.9563 161.972 81.5157 162.507 83.3869C162.979 85.0389 166.597 78.4859 166.833 77.7528M166.833 77.7528C166.834 77.7488 166.835 77.745 166.836 77.7414C167.724 74.7443 168.382 71.6077 169.144 68.5255M166.833 77.7528C166.966 79.8779 167.185 81.9817 167.529 84.0449C168.122 87.6055 170.195 85.3617 171.685 83.8718C173.369 82.1876 177.898 78.5403 176.672 75.6287C175.952 73.9182 173.118 72.528 171.477 72.0267C169.856 71.5312 169.233 70.1154 169.144 68.5255M166.833 77.7528C166.439 71.5006 166.782 65.0641 166.836 58.9348C166.983 42.3847 170.424 26.146 172.308 9.75355C172.584 7.35355 173.07 4.82818 173.07 2.41099C173.07 0.381898 173.191 5.13302 173.209 5.32031C174.671 20.9177 180.632 35.5707 185.4 50.3454C188.076 58.6373 190.408 67.1343 193.006 75.5043M169.144 68.5255C169.648 66.4868 170.197 64.4719 170.888 62.5368C172.123 59.0798 170.007 63.8255 169.642 64.9959C169.308 66.0641 169.078 67.3429 169.144 68.5255ZM193.006 75.5043C194.184 79.2997 195.416 83.0689 196.76 86.7811C197.883 89.8802 200.664 82.0921 200.882 81.4127C202.108 77.592 203.86 73.8959 205.627 70.295C205.725 70.0949 207.516 66.8581 207.186 66.693C206.557 66.3787 204.194 68.1145 204.034 68.2169C200.315 70.599 196.692 73.0939 193.006 75.5043ZM193.006 75.5043C190.715 77.0027 188.4 78.4684 186.024 79.8541C171.94 88.0673 157.341 95.4142 142.549 102.354M142.549 102.354C130.45 108.031 118.222 113.436 106.04 118.82L105.81 118.922C83.9507 128.584 61.9468 138.237 39.5883 146.699C29.1312 150.657 18.1511 154.968 7.10099 156.951C5.82104 157.181 4.33828 157.687 4.88437 155.912C6.01965 152.222 11.6428 150.512 14.6513 148.916C41.9472 134.429 72.2664 124.414 101.446 114.593C114.977 110.038 128.706 105.994 142.549 102.354ZM142.549 102.354C160.578 97.6147 178.802 93.5626 197.038 89.9675C214.345 86.5552 231.657 83.3811 248.99 80.1312C250.671 79.816 250.908 79.6357 249.128 78.7458M225.438 99.3188C225.2 99.2891 225.01 99.0485 224.875 98.6941M224.875 98.6941C224.415 97.4857 224.6 94.9548 225.75 94.9548C227.62 94.9548 226.724 98.6156 224.875 98.6941ZM224.875 98.6941C224.855 98.695 224.835 98.6954 224.815 98.6954M247.258 90.5909C247.137 91.6762 245.388 94.2945 245.388 91.8377C245.388 89.5585 246.634 89.5585 246.634 91.8377" stroke="black" stroke-width="3" stroke-linecap="round"/>
</svg>
